<svg width="1920" height="50" viewBox="0 0 1920 50" fill="none" xmlns="http://www.w3.org/2000/svg">
    <g filter="url(#filter0_b_8_256)">
    <rect width="1920" height="50" fill="black"/>
    <path fill-rule="evenodd" clip-rule="evenodd" d="M47.0792 16.7012C46.2036 15.2077 44.0147 15.2077 43.1391 16.7012L35.3082 30.0585C34.4326 31.552 35.5271 33.4189 37.2782 33.4189H47.0599H52.9401H62.7218C64.4729 33.4189 65.5674 31.552 64.6918 30.0585L56.8609 16.7012C55.9853 15.2077 53.7964 15.2077 52.9208 16.7012L50 21.6832L47.0792 16.7012Z" stroke="url(#paint0_linear_8_256)" stroke-width="3"/>
    <path d="M50.3378 27.1861C50.3378 27.5672 50.2075 27.8409 50.0885 27.9833C50.0505 28.0287 50.0206 28.0547 49.9999 28.0693C49.9793 28.0547 49.9494 28.0287 49.9114 27.9833C49.7924 27.8409 49.6621 27.5671 49.6621 27.1861C49.6621 27.2026 49.6624 27.2013 49.6671 27.1808C49.6801 27.1239 49.7268 26.9191 49.8945 26.5373C49.9274 26.4624 49.9626 26.3858 49.9999 26.3078C50.0373 26.3858 50.0725 26.4624 50.1054 26.5373C50.2731 26.9191 50.3198 27.1239 50.3328 27.1808C50.3375 27.2013 50.3378 27.2026 50.3378 27.1861ZM49.9673 28.0861C49.9672 28.0857 49.9705 28.0841 49.9774 28.0828C49.9708 28.0859 49.9674 28.0866 49.9673 28.0861ZM50.0225 28.0828C50.0294 28.0841 50.0327 28.0857 50.0326 28.0861C50.0325 28.0866 50.0291 28.0859 50.0225 28.0828Z" stroke="url(#paint1_linear_8_256)" stroke-width="5"/>
    <path d="M82.8675 30V18.8H84.4675V28.608H90.5315V30H82.8675ZM95.6661 30.096C94.8128 30.096 94.0555 29.9093 93.3941 29.536C92.7328 29.1627 92.2101 28.6507 91.8261 28C91.4421 27.3387 91.2501 26.592 91.2501 25.76C91.2501 24.9173 91.4421 24.1707 91.8261 23.52C92.2101 22.8693 92.7328 22.3627 93.3941 22C94.0555 21.6267 94.8128 21.44 95.6661 21.44C96.5088 21.44 97.2608 21.6267 97.9221 22C98.5941 22.3627 99.1168 22.8693 99.4901 23.52C99.8741 24.16 100.066 24.9067 100.066 25.76C100.066 26.6027 99.8741 27.3493 99.4901 28C99.1168 28.6507 98.5941 29.1627 97.9221 29.536C97.2608 29.9093 96.5088 30.096 95.6661 30.096ZM95.6661 28.752C96.2101 28.752 96.6955 28.6293 97.1221 28.384C97.5595 28.1387 97.9008 27.792 98.1461 27.344C98.3915 26.8853 98.5141 26.3573 98.5141 25.76C98.5141 25.152 98.3915 24.6293 98.1461 24.192C97.9008 23.744 97.5595 23.3973 97.1221 23.152C96.6955 22.9067 96.2101 22.784 95.6661 22.784C95.1221 22.784 94.6368 22.9067 94.2101 23.152C93.7835 23.3973 93.4421 23.744 93.1861 24.192C92.9301 24.6293 92.8021 25.152 92.8021 25.76C92.8021 26.3573 92.9301 26.8853 93.1861 27.344C93.4421 27.792 93.7835 28.1387 94.2101 28.384C94.6368 28.6293 95.1221 28.752 95.6661 28.752ZM102.19 30V21.52H103.662V23.824L103.518 23.248C103.753 22.6613 104.148 22.2133 104.702 21.904C105.257 21.5947 105.94 21.44 106.75 21.44V22.928C106.686 22.9173 106.622 22.912 106.558 22.912C106.505 22.912 106.452 22.912 106.398 22.912C105.577 22.912 104.926 23.1573 104.446 23.648C103.966 24.1387 103.726 24.848 103.726 25.776V30H102.19ZM112.341 30.096C111.435 30.096 110.635 29.9093 109.941 29.536C109.259 29.1627 108.725 28.6507 108.341 28C107.968 27.3493 107.781 26.6027 107.781 25.76C107.781 24.9173 107.963 24.1707 108.325 23.52C108.699 22.8693 109.205 22.3627 109.845 22C110.496 21.6267 111.227 21.44 112.037 21.44C112.859 21.44 113.584 21.6213 114.213 21.984C114.843 22.3467 115.333 22.8587 115.685 23.52C116.048 24.1707 116.229 24.9333 116.229 25.808C116.229 25.872 116.224 25.9467 116.213 26.032C116.213 26.1173 116.208 26.1973 116.197 26.272H108.981V25.168H115.397L114.773 25.552C114.784 25.008 114.672 24.5227 114.437 24.096C114.203 23.6693 113.877 23.3387 113.461 23.104C113.056 22.8587 112.581 22.736 112.037 22.736C111.504 22.736 111.029 22.8587 110.613 23.104C110.197 23.3387 109.872 23.6747 109.637 24.112C109.403 24.5387 109.285 25.0293 109.285 25.584V25.84C109.285 26.4053 109.413 26.912 109.669 27.36C109.936 27.7973 110.304 28.1387 110.773 28.384C111.243 28.6293 111.781 28.752 112.389 28.752C112.891 28.752 113.344 28.6667 113.749 28.496C114.165 28.3253 114.528 28.0693 114.837 27.728L115.685 28.72C115.301 29.168 114.821 29.5093 114.245 29.744C113.68 29.9787 113.045 30.096 112.341 30.096ZM128.97 21.44C129.653 21.44 130.256 21.5733 130.778 21.84C131.301 22.1067 131.706 22.512 131.994 23.056C132.293 23.6 132.442 24.288 132.442 25.12V30H130.906V25.296C130.906 24.4747 130.714 23.856 130.33 23.44C129.946 23.024 129.408 22.816 128.714 22.816C128.202 22.816 127.754 22.9227 127.37 23.136C126.986 23.3493 126.688 23.664 126.474 24.08C126.272 24.496 126.17 25.0133 126.17 25.632V30H124.634V25.296C124.634 24.4747 124.442 23.856 124.058 23.44C123.685 23.024 123.146 22.816 122.442 22.816C121.941 22.816 121.498 22.9227 121.114 23.136C120.73 23.3493 120.432 23.664 120.218 24.08C120.005 24.496 119.898 25.0133 119.898 25.632V30H118.362V21.52H119.834V23.776L119.594 23.2C119.861 22.6453 120.272 22.2133 120.826 21.904C121.381 21.5947 122.026 21.44 122.762 21.44C123.573 21.44 124.272 21.6427 124.858 22.048C125.445 22.4427 125.829 23.0453 126.01 23.856L125.386 23.6C125.642 22.9493 126.09 22.4267 126.73 22.032C127.37 21.6373 128.117 21.44 128.97 21.44Z" fill="white"/>
    </g>
    <defs>
    <filter id="filter0_b_8_256" x="-31" y="-31" width="1982" height="112" filterUnits="userSpaceOnUse" color-interpolation-filters="sRGB">
    <feFlood flood-opacity="0" result="BackgroundImageFix"/>
    <feGaussianBlur in="BackgroundImageFix" stdDeviation="15.5"/>
    <feComposite in2="SourceAlpha" operator="in" result="effect1_backgroundBlur_8_256"/>
    <feBlend mode="normal" in="SourceGraphic" in2="effect1_backgroundBlur_8_256" result="shape"/>
    </filter>
    <linearGradient id="paint0_linear_8_256" x1="50" y1="15.5811" x2="50" y2="33.4189" gradientUnits="userSpaceOnUse">
    <stop stop-color="#5B3962"/>
    <stop offset="1" stop-color="#1CB174"/>
    </linearGradient>
    <linearGradient id="paint1_linear_8_256" x1="50" y1="22.1082" x2="49.9999" y2="30.581" gradientUnits="userSpaceOnUse">
    <stop stop-color="#446568"/>
    <stop offset="1" stop-color="#21A672"/>
    </linearGradient>
    </defs>
</svg>
